<svg width="160mm" height="60mm" version="1.1" viewBox="0 0 160 60" xmlns="http://www.w3.org/2000/svg"><style/><g transform="translate(18.538 -104.99)"><g fill="#f00"><path transform="scale(.26458)" d="m31.697 447.82c0-20.413 0.53928-26.125 2.4667-26.125 6.9437 0 20.96 6.891 29.339 14.424 10.17 9.1434 15.621 18.121 18.334 30.196l1.7144 7.63h-51.853z"/><path transform="scale(.26458)" d="m31.697 509.4v-26.125h51.853l-1.7144 7.63c-2.7131 12.075-8.1639 21.053-18.334 30.196-8.3781 7.5327-22.395 14.424-29.339 14.424-1.9274 0-2.4667-5.7116-2.4667-26.125z"/><path transform="scale(.26458)" d="m-31.75 509.4v-26.125h52.25v52.25h-52.25z"/><path transform="scale(.26458)" d="m-31.75 572.65v-25.927h26.125c20.413 0 26.125 0.53928 26.125 2.4667 0 6.9437-6.891 20.96-14.424 29.339-9.1434 10.17-18.121 15.62-30.196 18.334l-7.63 1.7144z"/><path transform="scale(.26458)" d="m132.51 468.82c0.14358-17.978 22.669-41.431 44.278-46.103l6.0647-1.3112v52.546h-50.384z"/><path transform="scale(.26458)" d="m333.41 451.9-18.248-18.317 9.6992-5.279c16.864-9.1784 39.888-8.6271 56.248 1.3467l6.9901 4.2614-36.441 36.305z"/><path transform="scale(.26458)" d="m377.84 496.33-18.603-18.673 36.342-36.342 37.344 37.344-36.48 36.343z"/><path transform="scale(.26458)" d="m421.67 452.41-17.691-17.804 4.6652-3.6021c13.881-10.718 37.466-12.327 55.515-3.7878 6.4146 3.0346 11.663 6.1995 11.663 7.0331 0 1.6088-33.938 35.964-35.527 35.964-0.51415 0-8.8957-8.0117-18.626-17.804z"/><path transform="scale(.26458)" d="m468.37 458.07 15.798-15.881 3.234 4.2176c3.664 4.7784 8.9401 19.027 8.9401 24.144 0 3.0956-1.9573 3.3997-21.885 3.3997h-21.885z"/><path transform="scale(.26458)" d="m294.85 469.75c0.0429-4.3951 5.499-17.615 9.8106-23.771 2.3672-3.3797 3.459-2.6494 18.218 12.187l15.7 15.782h-21.885c-21.464 0-21.884-0.0808-21.844-4.1986z"/></g><g fill="#53bf40"><path transform="scale(.26458)" d="m-1.8925 443.16-21.399-21.46h43.792v21.46c0 11.803-0.22363 21.46-0.49696 21.46-0.27333 0-10.126-9.6569-21.896-21.46z"/><path transform="scale(.26458)" d="m-31.75 451.12v-22.83l22.393 22.334c12.316 12.284 22.393 22.558 22.393 22.83 0 0.27263-10.077 0.49569-22.393 0.49569h-22.393z"/><path transform="scale(.26458)" d="m130.6 505.67v-22.393h45.66l-22.334 22.393c-12.284 12.316-22.558 22.393-22.83 22.393s-0.49569-10.077-0.49569-22.393z"/><path transform="scale(.26458)" d="m160.46 514.07c11.769-11.803 21.623-21.46 21.896-21.46 0.27332 0 0.49695 9.6569 0.49695 21.46v21.46h-43.792z"/><path transform="scale(.26458)" d="m130.6 568.18v-21.46h43.792l-21.399 21.46c-11.769 11.803-21.623 21.46-21.896 21.46s-0.49696-9.6569-0.49696-21.46z"/><path transform="scale(.26458)" d="m165.12 572.85 26.075-26.125h55.099v52.25h-107.25z"/><path transform="scale(.26458)" d="m294.81 504.74v-21.46h43.792l-21.399 21.46c-11.769 11.803-21.623 21.46-21.896 21.46-0.27333 0-0.49696-9.6569-0.49696-21.46z"/><path transform="scale(.26458)" d="m322.8 514.07c11.769-11.803 21.623-21.46 21.896-21.46 0.27332 0 0.49695 9.6569 0.49695 21.46v21.46h-43.792z"/><path transform="scale(.26458)" d="m294.81 568.18v-21.46h43.792l-21.399 21.46c-11.769 11.803-21.623 21.46-21.896 21.46-0.27333 0-0.49696-9.6569-0.49696-21.46z"/><path transform="scale(.26458)" d="m470.66 564.89-24.699-24.75v-56.865h50.384v53.183c0 29.251-0.2216 53.183-0.49245 53.183-0.27084 0-11.607-11.138-25.192-24.75z"/></g></g></svg>
